

 ---- Mulholland Drive 2001 Blu-ray Movie rip ----


Storyline:
A bright-eyed young actress travels to Hollywood, only to be ensnared in a dark conspiracy involving a woman who was nearly murdered, and now has amnesia because of a car crash. Eventually, both women are pulled into a psychotic illusion involving a dangerous blue box, a director named Adam Kesher, and the mysterious night club Silencio.

More Movie info:  http://www.imdb.com/title/tt0166924/

Genre                            : Drama | Mystery | Thriller 
Actors                           : Naomi Watts - Laura Harring - Ann Miller
Source                           : Bluray
Container                        : Mkv
File size                        : 2.51 GiB
Duration                         : 2h 26mn
Overall bit rate                 : 2 451 Kbps
Encoded date                     : UTC 2011-01-04 18:45:30
Writing application              : mkvmerge v4.3.0 ('Escape from the Island') built on Sep  5 2010 10:30:51
Writing library                  : libebml v1.0.0 + libmatroska v1.0.0

Video
ID                               : 1
Format                           : AVC
Format/Info                      : Advanced Video Codec
Format profile                   : High@L3.1
Format settings, CABAC           : Yes
Format settings, ReFrames        : 4 frames
Format settings, GOP             : M=4, N=16
Codec ID                         : V_MPEG4/ISO/AVC
Duration                         : 2h 26mn
Bit rate                         : 2 001 Kbps
Width                            : 1 280 pixels
Height                           : 688 pixels
Display aspect ratio             : 1.860
Frame rate                       : 23.976 fps
Color space                      : YUV
Chroma subsampling               : 4:2:0
Bit depth                        : 8 bits
Scan type                        : Progressive
Bits/(Pixel*Frame)               : 0.095
Stream size                      : 2.00 GiB (80%)
Writing library                  : x264 core 105 r1724 b02df7b
Encoding settings                : cabac=1 / ref=3 / deblock=1:-1:-1 / analyse=0x3:0x113 / me=hex / subme=7 / psy=1 / psy_rd=1.00:0.15 / mixed_ref=1 / me_range=16 / chroma_me=1 / trellis=1 / 8x8dct=1 / cqm=0 / deadzone=21,11 / fast_pskip=1 / chroma_qp_offset=-3 / threads=3 / sliced_threads=0 / nr=0 / decimate=1 / interlaced=0 / constrained_intra=0 / bframes=3 / b_pyramid=2 / b_adapt=1 / b_bias=0 / direct=1 / weightb=1 / open_gop=0 / weightp=2 / keyint=250 / keyint_min=23 / scenecut=40 / intra_refresh=0 / rc_lookahead=40 / rc=2pass / mbtree=1 / bitrate=2001 / ratetol=1.0 / qcomp=0.60 / qpmin=10 / qpmax=51 / qpstep=4 / cplxblur=20.0 / qblur=0.5 / ip_ratio=1.40 / aq=1:1.00

Audio
ID                               : 2
Format                           : AC-3
Format/Info                      : Audio Coding 3
Mode extension                   : CM (complete main)
Codec ID                         : A_AC3
Duration                         : 2h 26mn
Bit rate mode                    : Constant
Bit rate                         : 448 Kbps
Channel(s)                       : 6 channels
Channel positions                : Front: L C R, Side: L R, LFE
Sampling rate                    : 48.0 KHz
Bit depth                        : 16 bits
Compression mode                 : Lossy
Stream size                      : 470 MiB (18%)
Language                         : English


Subtitles: English,Svenska (.srt file)

More Subtitles: 
http://www.sub-titles.net 
http://subscene.com/

Movie snapshots included in torrent.

My torrents:  
http://thepiratebay.org/user/PetaFOX
